<svg width="1024" height="1024" viewBox="0 0 1024 1024" fill="none" xmlns="http://www.w3.org/2000/svg">
  <defs>
    <!-- Warm charcoal tile (brand foreground), whisper of vertical depth -->
    <linearGradient id="tile" x1="512" y1="0" x2="512" y2="1024" gradientUnits="userSpaceOnUse">
      <stop offset="0" stop-color="#201E1B"/>
      <stop offset="0.55" stop-color="#191714"/>
      <stop offset="1" stop-color="#141210"/>
    </linearGradient>
    <!-- Faint top sheen for a touch of life at large sizes -->
    <linearGradient id="sheen" x1="512" y1="0" x2="512" y2="430" gradientUnits="userSpaceOnUse">
      <stop offset="0" stop-color="#ffffff" stop-opacity="0.05"/>
      <stop offset="1" stop-color="#ffffff" stop-opacity="0"/>
    </linearGradient>
  </defs>

  <!-- Tile (Apple continuous-corner squircle ~22.37%) -->
  <rect x="0" y="0" width="1024" height="1024" rx="229" ry="229" fill="url(#tile)"/>
  <rect x="0" y="0" width="1024" height="1024" rx="229" ry="229" fill="url(#sheen)"/>

  <!-- Brand "F" : Instrument Serif glyph outline, cream (brand background) -->
  <g transform="translate(375.9 752) scale(0.6667 -0.6667)" fill="#FDFCFB">
    <path d="M34 0Q19 0 19 11Q19 20 32 23L55 27Q76 31 82.5 38.0Q89 45 89 66V654Q89 675 82.5 682.0Q76 689 55 693L32 697Q19 700 19 709Q19 720 34 720H356Q379 720 381 697L389 531Q391 514 376 514Q364 514 362 527L357 560Q349 612 329.0 641.0Q309 670 284.0 682.5Q259 695 236 695Q192 695 176.0 681.0Q160 667 160 638V402Q160 388 174 388H209Q253 388 263 435L274 485Q277 498 289 498Q301 498 301 481V256Q301 239 289 239Q277 239 274 252L263 301Q256 336 243.5 347.0Q231 358 208 358H174Q160 358 160 344V71Q160 50 166.5 41.5Q173 33 194 30L241 23Q252 21 252 12Q252 0 237 0Z"/>
  </g>
</svg>
